<svg xmlns="http://www.w3.org/2000/svg" viewBox="0 0 100 100" preserveAspectRatio="xMidYMid" width="214" height="214" style="shape-rendering: auto; display: block; background: transparent;" xmlns:xlink="http://www.w3.org/1999/xlink"><g><g transform="rotate(0 50 50)">
  <rect fill="#e2b646" height="6" width="34" ry="3" rx="17" y="19" x="33">
    <animate repeatCount="indefinite" begin="-0.7333333333333333s" dur="0.8s" keyTimes="0;1" values="1;0" attributeName="opacity"></animate>
  </rect>
</g><g transform="rotate(30 50 50)">
  <rect fill="#e2b646" height="6" width="34" ry="3" rx="17" y="19" x="33">
    <animate repeatCount="indefinite" begin="-0.6666666666666666s" dur="0.8s" keyTimes="0;1" values="1;0" attributeName="opacity"></animate>
  </rect>
</g><g transform="rotate(60 50 50)">
  <rect fill="#e2b646" height="6" width="34" ry="3" rx="17" y="19" x="33">
    <animate repeatCount="indefinite" begin="-0.6s" dur="0.8s" keyTimes="0;1" values="1;0" attributeName="opacity"></animate>
  </rect>
</g><g transform="rotate(90 50 50)">
  <rect fill="#e2b646" height="6" width="34" ry="3" rx="17" y="19" x="33">
    <animate repeatCount="indefinite" begin="-0.5333333333333333s" dur="0.8s" keyTimes="0;1" values="1;0" attributeName="opacity"></animate>
  </rect>
</g><g transform="rotate(120 50 50)">
  <rect fill="#e2b646" height="6" width="34" ry="3" rx="17" y="19" x="33">
    <animate repeatCount="indefinite" begin="-0.4666666666666667s" dur="0.8s" keyTimes="0;1" values="1;0" attributeName="opacity"></animate>
  </rect>
</g><g transform="rotate(150 50 50)">
  <rect fill="#e2b646" height="6" width="34" ry="3" rx="17" y="19" x="33">
    <animate repeatCount="indefinite" begin="-0.4s" dur="0.8s" keyTimes="0;1" values="1;0" attributeName="opacity"></animate>
  </rect>
</g><g transform="rotate(180 50 50)">
  <rect fill="#e2b646" height="6" width="34" ry="3" rx="17" y="19" x="33">
    <animate repeatCount="indefinite" begin="-0.3333333333333333s" dur="0.8s" keyTimes="0;1" values="1;0" attributeName="opacity"></animate>
  </rect>
</g><g transform="rotate(210 50 50)">
  <rect fill="#e2b646" height="6" width="34" ry="3" rx="17" y="19" x="33">
    <animate repeatCount="indefinite" begin="-0.26666666666666666s" dur="0.8s" keyTimes="0;1" values="1;0" attributeName="opacity"></animate>
  </rect>
</g><g transform="rotate(240 50 50)">
  <rect fill="#e2b646" height="6" width="34" ry="3" rx="17" y="19" x="33">
    <animate repeatCount="indefinite" begin="-0.2s" dur="0.8s" keyTimes="0;1" values="1;0" attributeName="opacity"></animate>
  </rect>
</g><g transform="rotate(270 50 50)">
  <rect fill="#e2b646" height="6" width="34" ry="3" rx="17" y="19" x="33">
    <animate repeatCount="indefinite" begin="-0.13333333333333333s" dur="0.8s" keyTimes="0;1" values="1;0" attributeName="opacity"></animate>
  </rect>
</g><g transform="rotate(300 50 50)">
  <rect fill="#e2b646" height="6" width="34" ry="3" rx="17" y="19" x="33">
    <animate repeatCount="indefinite" begin="-0.06666666666666667s" dur="0.8s" keyTimes="0;1" values="1;0" attributeName="opacity"></animate>
  </rect>
</g><g transform="rotate(330 50 50)">
  <rect fill="#e2b646" height="6" width="34" ry="3" rx="17" y="19" x="33">
    <animate repeatCount="indefinite" begin="0s" dur="0.8s" keyTimes="0;1" values="1;0" attributeName="opacity"></animate>
  </rect>
</g><g></g></g><!-- [ldio] generated by https://loading.io --></svg>